<svg width="30" height="30" viewBox="0 0 50 50" fill="none" xmlns="http://www.w3.org/2000/svg">
<path d="M25 35.4167V43.75M31.6667 10.2083L29.7917 9.37499M31.6667 14.7917L29.7917 15.625M35.2084 6.66666L34.375 4.79166M35.2084 18.3333L34.375 20.2083M40.625 4.79166L39.7917 6.66666M40.625 20.2083L39.7917 18.3333M45.2084 9.37499L43.3334 10.2083M45.2084 15.625L43.3334 14.7917M45.8334 27.0833V31.25C45.8334 32.3551 45.3944 33.4149 44.613 34.1963C43.8316 34.9777 42.7718 35.4167 41.6667 35.4167H8.33335C7.22828 35.4167 6.16848 34.9777 5.38708 34.1963C4.60567 33.4149 4.16669 32.3551 4.16669 31.25V10.4167C4.16669 9.31159 4.60567 8.25178 5.38708 7.47038C6.16848 6.68898 7.22828 6.24999 8.33335 6.24999H22.9167M16.6667 43.75H33.3334M43.75 12.5C43.75 15.9518 40.9518 18.75 37.5 18.75C34.0482 18.75 31.25 15.9518 31.25 12.5C31.25 9.04821 34.0482 6.24999 37.5 6.24999C40.9518 6.24999 43.75 9.04821 43.75 12.5Z" stroke="#3EB942" stroke-width="4.16667" stroke-linecap="round" stroke-linejoin="round"/>
</svg>
