<svg width="35" height="35" viewBox="0 0 50 50" fill="none" xmlns="http://www.w3.org/2000/svg">
<path d="M25 43.6251C28.125 43.6251 30.7291 45.8334 33.3333 45.8334C39.5833 45.8334 45.8333 29.1667 45.8333 20.3751C45.7623 17.6766 44.6275 15.1156 42.6763 13.2502C40.7251 11.3848 38.1156 10.3663 35.4166 10.4167C30.7916 10.4167 27.0833 13.4167 25 14.5834C22.9166 13.4167 19.2083 10.4167 14.5833 10.4167C11.8828 10.3608 9.27017 11.3775 7.31773 13.244C5.36529 15.1105 4.2322 17.6748 4.16663 20.3751C4.16663 29.1667 10.4166 45.8334 16.6666 45.8334C19.2708 45.8334 21.875 43.6251 25 43.6251Z" fill="#AAFF8B"/>
<path d="M20.8333 4.16675C22.9166 5.20841 25 8.33341 25 14.5834Z" fill="#AAFF8B"/>
<path d="M25 14.5834C27.0833 13.4167 30.7916 10.4167 35.4166 10.4167C38.1156 10.3663 40.7251 11.3848 42.6763 13.2502C44.6275 15.1156 45.7623 17.6766 45.8333 20.3751C45.8333 29.1667 39.5833 45.8334 33.3333 45.8334C30.7291 45.8334 28.125 43.6251 25 43.6251C21.875 43.6251 19.2708 45.8334 16.6666 45.8334C10.4166 45.8334 4.16663 29.1667 4.16663 20.3751C4.2322 17.6748 5.36529 15.1105 7.31773 13.244C9.27017 11.3775 11.8828 10.3608 14.5833 10.4167C19.2083 10.4167 22.9166 13.4167 25 14.5834ZM25 14.5834C25 8.33341 22.9166 5.20841 20.8333 4.16675" stroke="#3EB942" stroke-opacity="0.666667" stroke-width="5" stroke-linecap="round" stroke-linejoin="round"/>
</svg>
