<svg width="35" height="35" viewBox="0 0 56 57" fill="none" xmlns="http://www.w3.org/2000/svg">
<g filter="url(#filter0_d_324_40)">
<g filter="url(#filter1_i_324_40)">
<path d="M28.8521 27.1188C29.8017 24.9176 31.4816 23.1113 33.6082 22.0046C35.7348 20.898 38.1781 20.5587 40.5258 21.0441C42.8735 21.5295 44.9819 22.8099 46.4953 24.6691C48.0087 26.5284 48.8345 28.8527 48.8334 31.2501C48.8334 39.3042 40.5 45.8334 30.0834 45.8334C21.5896 45.8334 13.0979 44.1251 8.47711 40.7042C7.58961 40.0459 7.16253 38.9709 7.18545 37.8667C7.41253 26.5063 8.47294 4.16675 23.8334 4.16675C25.491 4.16675 27.0807 4.82523 28.2528 5.99733C29.4249 7.16943 30.0834 8.75915 30.0834 10.4167C30.0834 11.5218 29.6444 12.5816 28.863 13.363C28.0816 14.1444 27.0218 14.5834 25.9167 14.5834C23.6146 14.5834 22.5 13.6584 21.75 12.5001M34.25 29.1667C32.9927 28.2232 31.5382 27.5765 29.9954 27.2751C28.4526 26.9736 26.8616 27.0252 25.3416 27.4261C23.8216 27.8269 22.412 28.5666 21.2185 29.5896C20.025 30.6127 19.0786 31.8926 18.45 33.3334M23.7584 14.2188C19.7063 16.6188 22.7917 27.0834 19.6667 31.2501" stroke="#3EB942" stroke-width="6" stroke-linecap="round" stroke-linejoin="round"/>
</g>
</g>
<defs>
<filter id="filter0_d_324_40" x="-1" y="0" width="58" height="58" filterUnits="userSpaceOnUse" color-interpolation-filters="sRGB">
<feFlood flood-opacity="0" result="BackgroundImageFix"/>
<feColorMatrix in="SourceAlpha" type="matrix" values="0 0 0 0 0 0 0 0 0 0 0 0 0 0 0 0 0 0 127 0" result="hardAlpha"/>
<feOffset dy="4"/>
<feGaussianBlur stdDeviation="2"/>
<feComposite in2="hardAlpha" operator="out"/>
<feColorMatrix type="matrix" values="0 0 0 0 0 0 0 0 0 0 0 0 0 0 0 0 0 0 0.25 0"/>
<feBlend mode="normal" in2="BackgroundImageFix" result="effect1_dropShadow_324_40"/>
<feBlend mode="normal" in="SourceGraphic" in2="effect1_dropShadow_324_40" result="shape"/>
</filter>
<filter id="filter1_i_324_40" x="4.18457" y="1.16675" width="49.6488" height="49.6667" filterUnits="userSpaceOnUse" color-interpolation-filters="sRGB">
<feFlood flood-opacity="0" result="BackgroundImageFix"/>
<feBlend mode="normal" in="SourceGraphic" in2="BackgroundImageFix" result="shape"/>
<feColorMatrix in="SourceAlpha" type="matrix" values="0 0 0 0 0 0 0 0 0 0 0 0 0 0 0 0 0 0 127 0" result="hardAlpha"/>
<feOffset dx="2" dy="2"/>
<feGaussianBlur stdDeviation="1.05"/>
<feComposite in2="hardAlpha" operator="arithmetic" k2="-1" k3="1"/>
<feColorMatrix type="matrix" values="0 0 0 0 0 0 0 0 0 0 0 0 0 0 0 0 0 0 0.75 0"/>
<feBlend mode="normal" in2="shape" result="effect1_innerShadow_324_40"/>
</filter>
</defs>
</svg>
