<svg width="35" height="35" viewBox="0 0 50 50" fill="none" xmlns="http://www.w3.org/2000/svg">
<path d="M25.8521 27.1188C26.8017 24.9175 28.4816 23.1112 30.6082 22.0046C32.7348 20.8979 35.1781 20.5587 37.5258 21.0441C39.8735 21.5295 41.9819 22.8098 43.4953 24.6691C45.0087 26.5283 45.8345 28.8527 45.8334 31.25C45.8334 39.3042 37.5 45.8334 27.0834 45.8334C18.5896 45.8334 10.0979 44.125 5.47711 40.7042C4.58961 40.0459 4.16253 38.9709 4.18545 37.8667C4.41253 26.5063 5.47294 4.16669 20.8334 4.16669C22.491 4.16669 24.0807 4.82517 25.2528 5.99727C26.4249 7.16937 27.0834 8.75908 27.0834 10.4167C27.0834 11.5218 26.6444 12.5816 25.863 13.363C25.0816 14.1444 24.0218 14.5834 22.9167 14.5834C20.6146 14.5834 19.5 13.6584 18.75 12.5M31.25 29.1667C29.9927 28.2232 28.5382 27.5765 26.9954 27.275C25.4526 26.9736 23.8616 27.0252 22.3416 27.426C20.8216 27.8269 19.412 28.5665 18.2185 29.5896C17.025 30.6126 16.0786 31.8925 15.45 33.3334M20.7584 14.2188C16.7063 16.6188 19.7917 27.0834 16.6667 31.25" stroke="#a2a2a2" stroke-width="4.16667" stroke-linecap="round" stroke-linejoin="round"/>
</svg>
