<svg width="35" height="35" viewBox="0 0 50 50" fill="none" xmlns="http://www.w3.org/2000/svg">
<path d="M33.3335 16.6667H20.8335C19.7284 16.6667 18.6686 17.1057 17.8872 17.8871C17.1058 18.6685 16.6668 19.7283 16.6668 20.8333C16.6668 21.9384 17.1058 22.9982 17.8872 23.7796C18.6686 24.561 19.7284 25 20.8335 25H29.1668C30.2719 25 31.3317 25.439 32.1131 26.2204C32.8945 27.0018 33.3335 28.0616 33.3335 29.1667C33.3335 30.2717 32.8945 31.3315 32.1131 32.1129C31.3317 32.8943 30.2719 33.3333 29.1668 33.3333H16.6668M25.0002 37.5V12.5M8.02099 17.9583C7.71691 16.5886 7.7636 15.1643 8.15673 13.8174C8.54987 12.4705 9.27671 11.2447 10.2699 10.2536C11.2631 9.2625 12.4904 8.53822 13.8381 8.1479C15.1858 7.75759 16.6102 7.71388 17.9793 8.02083C18.7329 6.84229 19.771 5.87241 20.998 5.20059C22.2249 4.52878 23.6013 4.17664 25.0002 4.17664C26.399 4.17664 27.7754 4.52878 29.0023 5.20059C30.2293 5.87241 31.2674 6.84229 32.021 8.02083C33.3922 7.71255 34.8191 7.75606 36.1689 8.14732C37.5188 8.53858 38.7477 9.26488 39.7415 10.2587C40.7353 11.2524 41.4616 12.4814 41.8528 13.8313C42.2441 15.1811 42.2876 16.608 41.9793 17.9792C43.1579 18.7327 44.1277 19.7708 44.7996 20.9978C45.4714 22.2248 45.8235 23.6011 45.8235 25C45.8235 26.3989 45.4714 27.7752 44.7996 29.0022C44.1277 30.2292 43.1579 31.2673 41.9793 32.0208C42.2863 33.3899 42.2426 34.8144 41.8523 36.1621C41.4619 37.5098 40.7377 38.7371 39.7466 39.7303C38.7555 40.7234 37.5297 41.4503 36.1828 41.8434C34.8359 42.2366 33.4116 42.2832 32.0418 41.9792C31.2892 43.1622 30.2503 44.1363 29.0212 44.8111C27.7922 45.4859 26.4127 45.8397 25.0106 45.8397C23.6084 45.8397 22.229 45.4859 20.9999 44.8111C19.7708 44.1363 18.7319 43.1622 17.9793 41.9792C16.6102 42.2861 15.1858 42.2424 13.8381 41.8521C12.4904 41.4618 11.2631 40.7375 10.2699 39.7464C9.27671 38.7553 8.54987 37.5295 8.15673 36.1826C7.7636 34.8357 7.71691 33.4114 8.02099 32.0417C6.8334 31.2901 5.85519 30.2504 5.17734 29.0192C4.4995 27.788 4.14404 26.4054 4.14404 25C4.14404 23.5946 4.4995 22.212 5.17734 20.9808C5.85519 19.7496 6.8334 18.7099 8.02099 17.9583Z" stroke="#a2a2a2" stroke-width="3" stroke-linecap="round" stroke-linejoin="round"/>
</svg>
