<svg width="50" height="50" viewBox="0 0 50 50" fill="none" xmlns="http://www.w3.org/2000/svg">
<g clip-path="url(#clip0_325_2)">
<g filter="url(#filter0_di_325_2)">
<path d="M29.7661 29.7661L20.2339 20.2339Z" fill="#4E6A47"/>
<path d="M38.2201 43.8362C37.4753 44.5812 36.4651 44.9998 35.4117 45C34.3583 45.0002 33.348 44.5819 32.603 43.8372C31.858 43.0924 31.4393 42.0822 31.4391 41.0288C31.439 39.9754 31.8572 38.9651 32.602 38.2201L29.0929 41.7311C28.3479 42.4761 27.3375 42.8947 26.2839 42.8947C25.2303 42.8947 24.2198 42.4761 23.4748 41.7311C22.7298 40.9861 22.3113 39.9757 22.3113 38.9221C22.3113 37.8685 22.7298 36.858 23.4748 36.113L36.113 23.4748C36.858 22.7298 37.8685 22.3113 38.9221 22.3113C39.9757 22.3113 40.9861 22.7298 41.7311 23.4748C42.4761 24.2198 42.8947 25.2303 42.8947 26.2839C42.8947 27.3375 42.4761 28.3479 41.7311 29.0929L38.2201 32.602C38.9651 31.8572 39.9754 31.439 41.0288 31.4391C42.0822 31.4393 43.0924 31.858 43.8372 32.603C44.5819 33.348 45.0002 34.3583 45 35.4117C44.9998 36.4651 44.5812 37.4753 43.8362 38.2201L38.2201 43.8362Z" fill="#4E6A47"/>
<path d="M43.866 43.866L41.0857 41.0857Z" fill="#4E6A47"/>
<path d="M8.91429 8.91429L6.13405 6.13405Z" fill="#4E6A47"/>
<path d="M13.887 26.5252C13.142 27.2702 12.1315 27.6887 11.0779 27.6887C10.0243 27.6887 9.01388 27.2702 8.26888 26.5252C7.52387 25.7802 7.10533 24.7697 7.10533 23.7161C7.10533 22.6625 7.52387 21.6521 8.26888 20.9071L11.7799 17.398C11.411 17.7668 10.9731 18.0593 10.4912 18.2588C10.0093 18.4583 9.49278 18.5609 8.97118 18.5609C7.91777 18.5607 6.90758 18.142 6.16284 17.397C5.79408 17.0281 5.50159 16.5902 5.30207 16.1083C5.10255 15.6264 4.99991 15.1099 5 14.5883C5.00019 13.5349 5.41883 12.5247 6.16383 11.7799L11.7799 6.16383C12.5247 5.41883 13.5349 5.00019 14.5883 5C15.1099 4.99991 15.6264 5.10255 16.1083 5.30207C16.5902 5.50159 17.0281 5.79408 17.397 6.16284C17.7659 6.5316 18.0586 6.9694 18.2582 7.45126C18.4579 7.93312 18.5608 8.44959 18.5609 8.97118C18.5609 9.49278 18.4583 10.0093 18.2588 10.4912C18.0593 10.9731 17.7668 11.411 17.398 11.7799L20.9071 8.26888C21.6521 7.52387 22.6625 7.10533 23.7161 7.10533C24.7697 7.10533 25.7802 7.52387 26.5252 8.26888C27.2702 9.01388 27.6887 10.0243 27.6887 11.0779C27.6887 12.1315 27.2702 13.142 26.5252 13.887L13.887 26.5252Z" fill="#4E6A47"/>
<path d="M29.7661 29.7661L20.2339 20.2339M43.866 43.866L41.0857 41.0857M8.91429 8.91429L6.13405 6.13405M38.2201 43.8362C37.4753 44.5812 36.4651 44.9998 35.4117 45C34.3583 45.0002 33.348 44.5819 32.603 43.8372C31.858 43.0924 31.4393 42.0822 31.4391 41.0288C31.439 39.9754 31.8572 38.9651 32.602 38.2201L29.0929 41.7311C28.3479 42.4761 27.3375 42.8947 26.2839 42.8947C25.2303 42.8947 24.2198 42.4761 23.4748 41.7311C22.7298 40.9861 22.3113 39.9757 22.3113 38.9221C22.3113 37.8685 22.7298 36.858 23.4748 36.113L36.113 23.4748C36.858 22.7298 37.8685 22.3113 38.9221 22.3113C39.9757 22.3113 40.9861 22.7298 41.7311 23.4748C42.4761 24.2198 42.8947 25.2303 42.8947 26.2839C42.8947 27.3375 42.4761 28.3479 41.7311 29.0929L38.2201 32.602C38.9651 31.8572 39.9754 31.439 41.0288 31.4391C42.0822 31.4393 43.0924 31.858 43.8372 32.603C44.5819 33.348 45.0002 34.3583 45 35.4117C44.9998 36.4651 44.5812 37.4753 43.8362 38.2201L38.2201 43.8362ZM13.887 26.5252C13.142 27.2702 12.1315 27.6887 11.0779 27.6887C10.0243 27.6887 9.01388 27.2702 8.26888 26.5252C7.52387 25.7802 7.10533 24.7697 7.10533 23.7161C7.10533 22.6625 7.52387 21.6521 8.26888 20.9071L11.7799 17.398C11.411 17.7668 10.9731 18.0593 10.4912 18.2588C10.0093 18.4583 9.49278 18.5609 8.97118 18.5609C7.91777 18.5607 6.90758 18.142 6.16284 17.397C5.79408 17.0281 5.50159 16.5902 5.30207 16.1083C5.10255 15.6264 4.99991 15.1099 5 14.5883C5.00019 13.5349 5.41883 12.5247 6.16383 11.7799L11.7799 6.16383C12.5247 5.41883 13.5349 5.00019 14.5883 5C15.1099 4.99991 15.6264 5.10255 16.1083 5.30207C16.5902 5.50159 17.0281 5.79408 17.397 6.16284C17.7659 6.5316 18.0586 6.9694 18.2582 7.45126C18.4579 7.93312 18.5608 8.44959 18.5609 8.97118C18.5609 9.49278 18.4583 10.0093 18.2588 10.4912C18.0593 10.9731 17.7668 11.411 17.398 11.7799L20.9071 8.26888C21.6521 7.52387 22.6625 7.10533 23.7161 7.10533C24.7697 7.10533 25.7802 7.52387 26.5252 8.26888C27.2702 9.01388 27.6887 10.0243 27.6887 11.0779C27.6887 12.1315 27.2702 13.142 26.5252 13.887L13.887 26.5252Z" stroke="#3EB942" stroke-width="4.16667" stroke-linecap="round" stroke-linejoin="round"/>
</g>
</g>
<defs>
<filter id="filter0_di_325_2" x="-1.88337" y="-3.88325" width="55.7667" height="55.7665" filterUnits="userSpaceOnUse" color-interpolation-filters="sRGB">
<feFlood flood-opacity="0" result="BackgroundImageFix"/>
<feColorMatrix in="SourceAlpha" type="matrix" values="0 0 0 0 0 0 0 0 0 0 0 0 0 0 0 0 0 0 127 0" result="hardAlpha"/>
<feOffset dx="1" dy="-1"/>
<feGaussianBlur stdDeviation="2.9"/>
<feComposite in2="hardAlpha" operator="out"/>
<feColorMatrix type="matrix" values="0 0 0 0 0 0 0 0 0 0 0 0 0 0 0 0 0 0 0.57 0"/>
<feBlend mode="normal" in2="BackgroundImageFix" result="effect1_dropShadow_325_2"/>
<feBlend mode="normal" in="SourceGraphic" in2="effect1_dropShadow_325_2" result="shape"/>
<feColorMatrix in="SourceAlpha" type="matrix" values="0 0 0 0 0 0 0 0 0 0 0 0 0 0 0 0 0 0 127 0" result="hardAlpha"/>
<feOffset dx="2" dy="2"/>
<feGaussianBlur stdDeviation="7.15"/>
<feComposite in2="hardAlpha" operator="arithmetic" k2="-1" k3="1"/>
<feColorMatrix type="matrix" values="0 0 0 0 0 0 0 0 0 0 0 0 0 0 0 0 0 0 1 0"/>
<feBlend mode="normal" in2="shape" result="effect2_innerShadow_325_2"/>
</filter>
<clipPath id="clip0_325_2">
<rect width="50" height="50" fill="white"/>
</clipPath>
</defs>
</svg>
