<svg width="30" height="30" viewBox="0 0 50 50" fill="none" xmlns="http://www.w3.org/2000/svg">
<path d="M30 30L20 20M44.7917 44.7917L41.875 41.875M8.12503 8.125L5.20837 5.20833M38.8688 44.7604C38.0875 45.542 37.0277 45.9812 35.9226 45.9814C34.8176 45.9816 33.7576 45.5427 32.9761 44.7615C32.1945 43.9802 31.7553 42.9204 31.7551 41.8153C31.7549 40.7102 32.1938 39.6503 32.975 38.8687L29.2938 42.5521C28.5122 43.3336 27.4522 43.7727 26.3469 43.7727C25.2416 43.7727 24.1816 43.3336 23.4 42.5521C22.6185 41.7705 22.1794 40.7105 22.1794 39.6052C22.1794 38.4999 22.6185 37.4399 23.4 36.6583L36.6584 23.4C37.4399 22.6184 38.5 22.1794 39.6052 22.1794C40.7105 22.1794 41.7706 22.6184 42.5521 23.4C43.3337 24.1816 43.7728 25.2416 43.7728 26.3469C43.7728 27.4522 43.3337 28.5122 42.5521 29.2938L38.8688 32.975C39.6503 32.1937 40.7103 31.7549 41.8154 31.7551C42.9205 31.7553 43.9802 32.1945 44.7615 32.976C45.5428 33.7576 45.9816 34.8175 45.9814 35.9226C45.9812 37.0277 45.542 38.0875 44.7605 38.8687L38.8688 44.7604ZM13.3417 26.6C12.5601 27.3816 11.5001 27.8206 10.3948 27.8206C9.28953 27.8206 8.22951 27.3816 7.44795 26.6C6.66639 25.8184 6.22732 24.7584 6.22732 23.6531C6.22732 22.5478 6.66639 21.4878 7.44795 20.7063L11.1313 17.025C10.7443 17.4119 10.2849 17.7187 9.77933 17.928C9.27375 18.1373 8.7319 18.245 8.18471 18.2449C7.07962 18.2447 6.01986 17.8055 5.23858 17.024C4.85172 16.637 4.54488 16.1776 4.33557 15.672C4.12626 15.1664 4.01858 14.6246 4.01868 14.0774C4.01887 12.9723 4.45806 11.9125 5.23962 11.1313L11.1313 5.23958C11.9126 4.45802 12.9723 4.01884 14.0774 4.01864C14.6246 4.01855 15.1665 4.12623 15.672 4.33554C16.1776 4.54485 16.637 4.85169 17.024 5.23854C17.411 5.62539 17.718 6.08468 17.9275 6.59018C18.137 7.09568 18.2448 7.63749 18.2449 8.18468C18.245 8.73187 18.1373 9.27372 17.928 9.77929C17.7187 10.2849 17.4119 10.7443 17.025 11.1313L20.7063 7.44792C21.4878 6.66636 22.5479 6.22728 23.6532 6.22728C24.7585 6.22728 25.8185 6.66636 26.6 7.44792C27.3816 8.22948 27.8207 9.2895 27.8207 10.3948C27.8207 11.5001 27.3816 12.5601 26.6 13.3417L13.3417 26.6Z" stroke="#3EB942" stroke-width="4" stroke-linecap="round" stroke-linejoin="round"/>
</svg>
