<svg width="35" height="35" viewBox="0 0 50 50" fill="none" xmlns="http://www.w3.org/2000/svg">
<path d="M25 6.24998H10.4167C9.3116 6.24998 8.25179 6.68897 7.47039 7.47037C6.68899 8.25177 6.25 9.31158 6.25 10.4167V39.5833C6.25 40.6884 6.68899 41.7482 7.47039 42.5296C8.25179 43.311 9.3116 43.75 10.4167 43.75H39.5833C40.6884 43.75 41.7482 43.311 42.5296 42.5296C43.311 41.7482 43.75 40.6884 43.75 39.5833V25M38.2812 5.46873C39.1101 4.63993 40.2341 4.17432 41.4062 4.17432C42.5784 4.17432 43.7024 4.63993 44.5312 5.46873C45.3601 6.29754 45.8257 7.42163 45.8257 8.59373C45.8257 9.76584 45.3601 10.8899 44.5312 11.7187L25.7542 30.4979C25.2595 30.9922 24.6483 31.354 23.9771 31.55L17.9917 33.3C17.8124 33.3523 17.6224 33.3554 17.4415 33.3091C17.2606 33.2627 17.0955 33.1686 16.9634 33.0366C16.8314 32.9045 16.7373 32.7394 16.6909 32.5585C16.6446 32.3776 16.6477 32.1876 16.7 32.0083L18.45 26.0229C18.6469 25.3522 19.0094 24.7418 19.5042 24.2479L38.2812 5.46873Z" stroke="#3EB942" stroke-width="4" stroke-linecap="round" stroke-linejoin="round"/>
</svg>
