<svg width="35" height="35" viewBox="0 0 50 50" fill="none" xmlns="http://www.w3.org/2000/svg">
<path d="M22.3604 10.575C27.2133 9.99666 32.1221 11.0225 36.3372 13.4959C40.5523 15.9693 43.8421 19.7543 45.7042 24.2729C45.8778 24.7406 45.8778 25.2552 45.7042 25.7229C44.9385 27.5791 43.9267 29.324 42.6958 30.9104M29.3417 29.4958C28.1629 30.6343 26.5841 31.2643 24.9454 31.25C23.3067 31.2358 21.7391 30.5785 20.5803 29.4197C19.4215 28.2609 18.7642 26.6933 18.75 25.0546C18.7357 23.4158 19.3657 21.8371 20.5042 20.6583M36.4146 36.4562C33.651 38.0933 30.5676 39.1167 27.3737 39.4571C24.1797 39.7974 20.9499 39.4468 17.9034 38.4289C14.8569 37.411 12.065 35.7498 9.71711 33.5578C7.36923 31.3658 5.52032 28.6945 4.29583 25.725C4.12221 25.2572 4.12221 24.7427 4.29583 24.275C6.14298 19.7955 9.39307 16.0359 13.5583 13.5604M4.16667 4.16666L45.8333 45.8333" stroke="#3EB942" stroke-width="4.16667" stroke-linecap="round" stroke-linejoin="round"/>
</svg>
