<svg width="35" height="35" viewBox="0 0 50 50" fill="none" xmlns="http://www.w3.org/2000/svg">
<path d="M4.29583 25.725C4.12221 25.2572 4.12221 24.7427 4.29583 24.275C5.98688 20.1747 8.85732 16.6688 12.5433 14.2019C16.2292 11.7349 20.5647 10.4179 25 10.4179C29.4353 10.4179 33.7708 11.7349 37.4567 14.2019C41.1427 16.6688 44.0131 20.1747 45.7042 24.275C45.8778 24.7427 45.8778 25.2572 45.7042 25.725C44.0131 29.8253 41.1427 33.3312 37.4567 35.7981C33.7708 38.2651 29.4353 39.582 25 39.582C20.5647 39.582 16.2292 38.2651 12.5433 35.7981C8.85732 33.3312 5.98688 29.8253 4.29583 25.725Z" stroke="#3EB942" stroke-width="4.16667" stroke-linecap="round" stroke-linejoin="round"/>
<path d="M25 31.25C28.4518 31.25 31.25 28.4518 31.25 25C31.25 21.5482 28.4518 18.75 25 18.75C21.5482 18.75 18.75 21.5482 18.75 25C18.75 28.4518 21.5482 31.25 25 31.25Z" stroke="#3EB942" stroke-width="4.16667" stroke-linecap="round" stroke-linejoin="round"/>
</svg>
