<svg width="35" height="35" viewBox="0 0 50 50" fill="none" xmlns="http://www.w3.org/2000/svg">
<g clip-path="url(#clip0_324_64)">
<g filter="url(#filter0_d_324_64)">
<path d="M35.4167 6.25H39.5833C40.6884 6.25 41.7482 6.68899 42.5296 7.47039C43.311 8.25179 43.75 9.3116 43.75 10.4167V14.5833M43.75 35.4167V39.5833C43.75 40.6884 43.311 41.7482 42.5296 42.5296C41.7482 43.311 40.6884 43.75 39.5833 43.75H35.4167M6.25 14.5833V10.4167C6.25 9.3116 6.68899 8.25179 7.47039 7.47039C8.25179 6.68899 9.3116 6.25 10.4167 6.25H14.5833M14.5833 43.75H10.4167C9.3116 43.75 8.25179 43.311 7.47039 42.5296C6.68899 41.7482 6.25 40.6884 6.25 39.5833V35.4167M23.4292 34.7021C23.6247 34.9266 23.8661 35.1065 24.1371 35.2298C24.408 35.3531 24.7023 35.4169 25 35.4169C25.2977 35.4169 25.592 35.3531 25.8629 35.2298C26.1339 35.1065 26.3753 34.9266 26.5708 34.7021L34.0083 26.1583C34.5169 25.5718 34.9009 24.888 35.1371 24.1485C35.3732 23.409 35.4567 22.6292 35.3823 21.8565C35.3079 21.0837 35.0773 20.3342 34.7044 19.6533C34.3315 18.9724 33.8241 18.3745 33.213 17.8957C32.602 17.4169 31.9 17.0673 31.1496 16.8681C30.3993 16.6689 29.6164 16.6242 28.8483 16.7368C28.0802 16.8495 27.343 17.117 26.6815 17.5233C26.02 17.9295 25.4479 18.4659 25 19.1C24.5521 18.4659 23.98 17.9295 23.3185 17.5233C22.657 17.117 21.9198 16.8495 21.1517 16.7368C20.3836 16.6242 19.6007 16.6689 18.8504 16.8681C18.1 17.0673 17.398 17.4169 16.787 17.8957C16.1759 18.3745 15.6685 18.9724 15.2956 19.6533C14.9227 20.3342 14.6921 21.0837 14.6177 21.8565C14.5433 22.6292 14.6267 23.409 14.8629 24.1485C15.0991 24.888 15.4831 25.5718 15.9917 26.1583L23.4292 34.7021Z" stroke="#9898FF" stroke-width="4.16667" stroke-linecap="round" stroke-linejoin="round" shape-rendering="crispEdges"/>
<path d="M35.4167 6.25H39.5833C40.6884 6.25 41.7482 6.68899 42.5296 7.47039C43.311 8.25179 43.75 9.3116 43.75 10.4167V14.5833M43.75 35.4167V39.5833C43.75 40.6884 43.311 41.7482 42.5296 42.5296C41.7482 43.311 40.6884 43.75 39.5833 43.75H35.4167M6.25 14.5833V10.4167C6.25 9.3116 6.68899 8.25179 7.47039 7.47039C8.25179 6.68899 9.3116 6.25 10.4167 6.25H14.5833M14.5833 43.75H10.4167C9.3116 43.75 8.25179 43.311 7.47039 42.5296C6.68899 41.7482 6.25 40.6884 6.25 39.5833V35.4167M23.4292 34.7021C23.6247 34.9266 23.8661 35.1065 24.1371 35.2298C24.408 35.3531 24.7023 35.4169 25 35.4169C25.2977 35.4169 25.592 35.3531 25.8629 35.2298C26.1339 35.1065 26.3753 34.9266 26.5708 34.7021L34.0083 26.1583C34.5169 25.5718 34.9009 24.888 35.1371 24.1485C35.3732 23.409 35.4567 22.6292 35.3823 21.8565C35.3079 21.0837 35.0773 20.3342 34.7044 19.6533C34.3315 18.9724 33.8241 18.3745 33.213 17.8957C32.602 17.4169 31.9 17.0673 31.1496 16.8681C30.3993 16.6689 29.6164 16.6242 28.8483 16.7368C28.0802 16.8495 27.343 17.117 26.6815 17.5233C26.02 17.9295 25.4479 18.4659 25 19.1C24.5521 18.4659 23.98 17.9295 23.3185 17.5233C22.657 17.117 21.9198 16.8495 21.1517 16.7368C20.3836 16.6242 19.6007 16.6689 18.8504 16.8681C18.1 17.0673 17.398 17.4169 16.787 17.8957C16.1759 18.3745 15.6685 18.9724 15.2956 19.6533C14.9227 20.3342 14.6921 21.0837 14.6177 21.8565C14.5433 22.6292 14.6267 23.409 14.8629 24.1485C15.0991 24.888 15.4831 25.5718 15.9917 26.1583L23.4292 34.7021Z" stroke="#FF0000" stroke-opacity="0.54" stroke-width="4.16667" stroke-linecap="round" stroke-linejoin="round" shape-rendering="crispEdges"/>
</g>
</g>
<defs>
<filter id="filter0_d_324_64" x="1.36663" y="4.16675" width="47.2667" height="49.4665" filterUnits="userSpaceOnUse" color-interpolation-filters="sRGB">
<feFlood flood-opacity="0" result="BackgroundImageFix"/>
<feColorMatrix in="SourceAlpha" type="matrix" values="0 0 0 0 0 0 0 0 0 0 0 0 0 0 0 0 0 0 127 0" result="hardAlpha"/>
<feOffset dy="5"/>
<feGaussianBlur stdDeviation="1.4"/>
<feComposite in2="hardAlpha" operator="out"/>
<feColorMatrix type="matrix" values="0 0 0 0 0 0 0 0 0 0 0 0 0 0 0 0 0 0 0.45 0"/>
<feBlend mode="normal" in2="BackgroundImageFix" result="effect1_dropShadow_324_64"/>
<feBlend mode="normal" in="SourceGraphic" in2="effect1_dropShadow_324_64" result="shape"/>
</filter>
<clipPath id="clip0_324_64">
<rect width="50" height="50" fill="white"/>
</clipPath>
</defs>
</svg>
