<svg width="35" height="35" viewBox="0 0 50 50" fill="none" xmlns="http://www.w3.org/2000/svg">
<path d="M36.4584 13.5416H36.4792M14.5834 4.16663H35.4167C41.1697 4.16663 45.8334 8.83033 45.8334 14.5833V35.4166C45.8334 41.1696 41.1697 45.8333 35.4167 45.8333H14.5834C8.83045 45.8333 4.16675 41.1696 4.16675 35.4166V14.5833C4.16675 8.83033 8.83045 4.16663 14.5834 4.16663ZM33.3334 23.6875C33.5905 25.4213 33.2944 27.1921 32.4871 28.7479C31.6798 30.3037 30.4025 31.5654 28.8368 32.3534C27.2711 33.1415 25.4968 33.4158 23.7663 33.1373C22.0358 32.8588 20.4371 32.0418 19.1977 30.8024C17.9582 29.563 17.1412 27.9643 16.8627 26.2337C16.5843 24.5032 16.8586 22.7289 17.6466 21.1632C18.4346 19.5976 19.6963 18.3203 21.2521 17.513C22.808 16.7057 24.5787 16.4095 26.3126 16.6666C28.0812 16.9289 29.7185 17.753 30.9828 19.0173C32.247 20.2815 33.0712 21.9189 33.3334 23.6875Z" stroke="#3EB942" stroke-width="4.16667" stroke-linecap="round" stroke-linejoin="round"/>
</svg>
