<svg width="35" height="35" viewBox="0 0 50 50" fill="none" xmlns="http://www.w3.org/2000/svg">
<path d="M14.5833 22.9167V14.5834C14.5833 11.8207 15.6808 9.17116 17.6343 7.21766C19.5878 5.26415 22.2373 4.16669 25 4.16669C27.7627 4.16669 30.4122 5.26415 32.3657 7.21766C34.3192 9.17116 35.4167 11.8207 35.4167 14.5834V22.9167M10.4167 22.9167H39.5833C41.8845 22.9167 43.75 24.7822 43.75 27.0834V41.6667C43.75 43.9679 41.8845 45.8334 39.5833 45.8334H10.4167C8.11548 45.8334 6.25 43.9679 6.25 41.6667V27.0834C6.25 24.7822 8.11548 22.9167 10.4167 22.9167Z" stroke="#3EB942" stroke-width="4" stroke-linecap="round" stroke-linejoin="round"/>
</svg>
