<svg width="50" height="50" viewBox="0 0 50 50" fill="none" xmlns="http://www.w3.org/2000/svg">
<path d="M24.0103 4.78135C24.1016 4.5969 24.2427 4.44163 24.4175 4.33307C24.5924 4.22452 24.7941 4.16699 24.9999 4.16699C25.2057 4.16699 25.4075 4.22452 25.5823 4.33307C25.7572 4.44163 25.8982 4.5969 25.9895 4.78135L30.802 14.5293C31.119 15.1709 31.587 15.726 32.1658 16.1469C32.7446 16.5678 33.4169 16.842 34.1249 16.9459L44.8874 18.5209C45.0914 18.5505 45.2829 18.6365 45.4405 18.7693C45.5981 18.902 45.7154 19.0762 45.7791 19.2722C45.8429 19.4682 45.8505 19.678 45.8011 19.8781C45.7518 20.0782 45.6475 20.2604 45.4999 20.4043L37.7166 27.9834C37.2033 28.4836 36.8192 29.1011 36.5975 29.7827C36.3758 30.4642 36.323 31.1895 36.4437 31.8959L38.2812 42.6043C38.3172 42.8081 38.2952 43.0179 38.2176 43.2099C38.1401 43.4018 38.0102 43.568 37.8427 43.6897C37.6753 43.8113 37.477 43.8834 37.2705 43.8978C37.064 43.9122 36.8576 43.8682 36.6749 43.7709L27.0541 38.7126C26.4202 38.3797 25.7149 38.2058 24.9989 38.2058C24.2829 38.2058 23.5776 38.3797 22.9437 38.7126L13.3249 43.7709C13.1423 43.8676 12.9362 43.9111 12.73 43.8965C12.5239 43.8818 12.326 43.8096 12.1589 43.6881C11.9917 43.5665 11.8621 43.4005 11.7846 43.2089C11.7072 43.0173 11.685 42.8078 11.7208 42.6043L13.5562 31.898C13.6774 31.1912 13.6249 30.4655 13.4031 29.7835C13.1814 29.1016 12.797 28.4838 12.2833 27.9834L4.49992 20.4064C4.35116 20.2627 4.24574 20.0801 4.19568 19.8794C4.14562 19.6788 4.15292 19.4681 4.21676 19.2713C4.28059 19.0746 4.3984 18.8998 4.55675 18.7667C4.7151 18.6337 4.90764 18.5478 5.11242 18.5189L15.8728 16.9459C16.5817 16.8428 17.2549 16.569 17.8345 16.148C18.414 15.727 18.8826 15.1715 19.1999 14.5293L24.0103 4.78135Z" stroke="#3EB942" stroke-width="4.16667" stroke-linecap="round" stroke-linejoin="round"/>
</svg>
