<svg width="30" height="30" viewBox="0 0 50 50" fill="none" xmlns="http://www.w3.org/2000/svg">
<path d="M8.81759 22.7098C18.8818 18.0204 25.5817 14.9045 28.946 13.3928C38.5215 9.10461 40.5344 8.36419 41.8283 8.33334C42.1158 8.33334 42.7485 8.39504 43.1798 8.76525C43.5248 9.07375 43.6113 9.47482 43.6688 9.78332C43.7263 10.0918 43.7838 10.7397 43.7263 11.2333C43.2085 17.0949 40.9656 31.3171 39.8154 37.8573C39.3267 40.634 38.3777 41.5594 37.4575 41.6521C35.4448 41.8371 33.9206 40.2329 31.9942 38.8754C28.946 36.7467 27.2496 35.4202 24.2877 33.3223C20.8658 30.916 23.08 29.5894 25.0354 27.4298C25.5529 26.8746 34.3808 18.2364 34.5533 17.4651C34.5821 17.3726 34.5821 17.0024 34.3808 16.8173C34.1796 16.6321 33.8919 16.6939 33.6619 16.7556C33.3456 16.8173 28.5148 20.2725 19.1119 27.0904C17.7316 28.1085 16.4952 28.6023 15.3737 28.5713C14.1373 28.5404 11.7794 27.8308 9.99654 27.214C7.8399 26.4735 6.11461 26.0725 6.25838 24.7767C6.34465 24.0979 7.20729 23.4194 8.81759 22.7098Z" stroke="#3EB942" stroke-width="4" stroke-linecap="round"/>
</svg>
