<svg width="35" height="35" viewBox="0 0 50 50" fill="none" xmlns="http://www.w3.org/2000/svg">
<path d="M29.1668 4.16669V12.5C29.1668 13.6051 29.6058 14.6649 30.3872 15.4463C31.1686 16.2277 32.2284 16.6667 33.3335 16.6667H41.6668M18.7502 27.0834V25H31.2502V27.0834M25.0002 25V37.5M22.9168 37.5H27.0835M31.2502 4.16669H12.5002C11.3951 4.16669 10.3353 4.60567 9.55388 5.38708C8.77248 6.16848 8.3335 7.22828 8.3335 8.33335V41.6667C8.3335 42.7718 8.77248 43.8316 9.55388 44.613C10.3353 45.3944 11.3951 45.8334 12.5002 45.8334H37.5002C38.6052 45.8334 39.665 45.3944 40.4464 44.613C41.2278 43.8316 41.6668 42.7718 41.6668 41.6667V14.5834L31.2502 4.16669Z" stroke="#a2a2a2" stroke-width="4.16667" stroke-linecap="round" stroke-linejoin="round"/>
</svg>
