<svg width="35" height="35" viewBox="0 0 50 50" fill="none" xmlns="http://www.w3.org/2000/svg">
<path d="M20.8332 31.25H12.4998C10.2897 31.25 8.17008 32.128 6.60728 33.6908C5.04448 35.2536 4.1665 37.3732 4.1665 39.5833V43.75M45.2082 34.1667L43.3332 33.5417M31.6665 28.9583L29.7915 28.3333M34.5832 38.9583L35.2082 37.0833M39.7915 25.4167L40.4165 23.5417M40.8332 38.9583L39.9998 36.875M34.9998 25.625L34.1665 23.5417M29.7915 34.5833L31.8748 33.75M43.1248 28.75L45.2082 27.9167M43.7498 31.25C43.7498 34.7018 40.9516 37.5 37.4998 37.5C34.0481 37.5 31.2498 34.7018 31.2498 31.25C31.2498 27.7982 34.0481 25 37.4998 25C40.9516 25 43.7498 27.7982 43.7498 31.25ZM27.0832 14.5833C27.0832 19.1857 23.3522 22.9167 18.7498 22.9167C14.1475 22.9167 10.4165 19.1857 10.4165 14.5833C10.4165 9.98096 14.1475 6.25 18.7498 6.25C23.3522 6.25 27.0832 9.98096 27.0832 14.5833Z" stroke="#a2a2a2" stroke-width="4.16667" stroke-linecap="round" stroke-linejoin="round"/>
</svg>
