<svg width="35" height="35" viewBox="0 0 50 50" fill="none" xmlns="http://www.w3.org/2000/svg">
<path d="M33.3334 43.75V39.5833C33.3334 37.3732 32.4554 35.2536 30.8926 33.6908C29.3298 32.128 27.2102 31.25 25.0001 31.25H12.5001C10.2899 31.25 8.17033 32.128 6.60752 33.6908C5.04472 35.2536 4.16675 37.3732 4.16675 39.5833V43.75M45.8334 43.75V39.5833C45.832 37.7369 45.2175 35.9433 44.0863 34.484C42.955 33.0247 41.3712 31.9824 39.5834 31.5208M33.3334 6.52083C35.1259 6.97979 36.7147 8.02229 37.8493 9.48398C38.9839 10.9457 39.5998 12.7434 39.5998 14.5938C39.5998 16.4441 38.9839 18.2418 37.8493 19.7035C36.7147 21.1652 35.1259 22.2077 33.3334 22.6667M27.0834 14.5833C27.0834 19.1857 23.3525 22.9167 18.7501 22.9167C14.1477 22.9167 10.4167 19.1857 10.4167 14.5833C10.4167 9.98096 14.1477 6.25 18.7501 6.25C23.3525 6.25 27.0834 9.98096 27.0834 14.5833Z" stroke="#a2a2a2" stroke-width="4.16667" stroke-linecap="round" stroke-linejoin="round"/>
</svg>
