<svg width="35" height="35" viewBox="0 0 50 50" fill="none" xmlns="http://www.w3.org/2000/svg">
<path d="M5.20823 35.4167C3.75286 28.5485 3.75286 21.4515 5.20823 14.5833C5.39945 13.8859 5.76893 13.2502 6.28032 12.7388C6.79172 12.2274 7.42741 11.8579 8.12489 11.6667C19.2987 9.81554 30.701 9.81554 41.8749 11.6667C42.5724 11.8579 43.2081 12.2274 43.7195 12.7388C44.2309 13.2502 44.6003 13.8859 44.7916 14.5833C46.2469 21.4515 46.2469 28.5485 44.7916 35.4167C44.6003 36.1141 44.2309 36.7498 43.7195 37.2612C43.2081 37.7726 42.5724 38.1421 41.8749 38.3333C30.7011 40.1848 19.2987 40.1848 8.12489 38.3333C7.42741 38.1421 6.79172 37.7726 6.28032 37.2612C5.76893 36.7498 5.39945 36.1141 5.20823 35.4167Z" stroke="#3EB942" stroke-width="4.16667" stroke-linecap="round" stroke-linejoin="round"/>
<path d="M20.8332 31.25L31.2499 25L20.8332 18.75V31.25Z" stroke="#3EB942" stroke-width="4.16667" stroke-linecap="round" stroke-linejoin="round"/>
</svg>
